<svg width="149" height="149" viewBox="0 0 149 149" fill="none" xmlns="http://www.w3.org/2000/svg">
<path d="M102.554 89.4596C100.451 85.4596 97.8322 81.7727 94.7833 78.4907L122.356 56.1122C128.59 61.9582 133.732 68.9526 137.446 76.7604L102.554 89.4596ZM93.2367 39.8791L79.8535 67.3925C84.0679 69.4563 87.9556 72.0866 91.4162 75.1832L115.869 50.7307C109.146 45.8187 101.499 42.0978 93.2367 39.8791ZM104.672 94.0211C106.603 98.7918 107.831 103.921 108.226 109.284H144C144.044 108.27 144.071 107.253 144.071 106.229C144.071 98.8156 142.892 91.6799 140.721 84.9917L104.672 94.0211Z" fill="#00B45E"/>
<path d="M63.1202 38.6185C67.0963 37.9022 71.1899 37.5279 75.3719 37.5279C78.6437 37.5279 81.8611 37.7627 85.0121 38.2051L75.1252 65.3696C71.8415 64.1582 68.3996 63.2735 64.8369 62.7597L63.1202 38.6185ZM19.3925 66.3956L27.3431 72.1582C30.5758 69.7694 34.1028 67.7584 37.8578 66.1812L30.7987 53.9549C26.5078 57.618 22.6728 61.795 19.3925 66.3956ZM15.3721 72.752C9.83405 82.6575 6.67285 94.0722 6.67285 106.227C6.67285 107.251 6.70177 108.269 6.74601 109.283H6.81917C7.76345 96.5035 13.4308 85.0378 22.0807 76.6261L15.3721 72.752ZM55.2563 40.5224C48.6293 42.5487 42.4294 45.5483 36.8216 49.356L43.4537 64.2093C47.9216 62.9264 52.6395 62.2356 57.5192 62.2356C58.0449 62.2356 58.5672 62.2458 59.0895 62.2629L55.2563 40.5224Z" fill="#D31358"/>
<path d="M138.499 82.353L64.2502 100.009C62.8321 98.4375 60.6014 97.6984 58.4189 98.2831C56.3515 98.8371 54.8391 100.444 54.3094 102.372L49.2842 103.568L50.8809 109.527L55.8329 108.051C57.254 109.456 59.3654 110.092 61.4328 109.538C63.6136 108.953 65.1776 107.197 65.6182 105.128L138.751 83.293C139.356 83.1116 139.114 82.2077 138.499 82.353ZM60.7951 107.151C60.1673 107.319 59.5309 107.298 58.9509 107.119C57.8802 106.791 56.9958 105.936 56.6858 104.779C56.3758 103.622 56.7142 102.439 57.4812 101.62C57.8939 101.175 58.4326 100.839 59.0587 100.671C59.7523 100.485 60.4522 100.534 61.0793 100.764C62.0692 101.126 62.8726 101.948 63.1659 103.042C63.4591 104.137 63.1745 105.251 62.4985 106.061C62.0693 106.575 61.4869 106.966 60.7951 107.151Z" fill="#022859"/>
</svg>
