<svg width="3232" height="1756" viewBox="0 0 3232 1756" fill="none" xmlns="http://www.w3.org/2000/svg">
<path d="M2255.04 1221.2C2205.6 1127.16 2144.04 1040.48 2072.36 963.323L2720.6 437.203C2867.16 574.643 2988.04 739.083 3075.36 922.643L2255.04 1221.2ZM2036 55.5628L1721.36 702.403C1820.44 750.923 1911.84 812.763 1993.2 885.563L2568.08 310.683C2410.04 195.203 2230.24 107.723 2036 55.5628ZM2304.84 1328.44C2350.24 1440.6 2379.12 1561.2 2388.4 1687.28H3229.44C3230.48 1663.44 3231.12 1639.52 3231.12 1615.44C3231.12 1441.16 3203.4 1273.4 3152.36 1116.16L2304.84 1328.44Z" fill="#00B45E"/>
<path d="M1327.96 25.9229C1421.44 9.08285 1517.68 0.28275 1616 0.28275C1692.92 0.28275 1768.56 5.8028 1842.64 16.2028L1610.2 654.843C1533 626.363 1452.08 605.563 1368.32 593.483L1327.96 25.9229ZM299.92 678.963L486.84 814.443C562.84 758.283 645.76 711.003 734.04 673.923L568.08 386.483C467.2 472.603 377.04 570.803 299.92 678.963ZM205.4 828.403C75.1999 1061.28 0.879883 1329.64 0.879883 1615.4C0.879883 1639.48 1.55987 1663.4 2.59987 1687.24H4.31986C26.5199 1386.8 159.76 1117.24 363.12 919.483L205.4 828.403ZM1143.08 70.6827C987.28 118.323 841.52 188.843 709.68 278.363L865.6 627.563C970.64 597.403 1081.56 581.163 1196.28 581.163C1208.64 581.163 1220.92 581.403 1233.2 581.803L1143.08 70.6827Z" fill="#D31358"/>
<path d="M3100.13 1054.12L1354.53 1469.22C1321.19 1432.27 1268.75 1414.89 1217.44 1428.64C1168.83 1441.67 1133.27 1479.44 1120.82 1524.76L1002.68 1552.9L1040.22 1693L1156.64 1658.28C1190.05 1691.32 1239.69 1706.26 1288.29 1693.24C1339.56 1679.5 1376.33 1638.22 1386.69 1589.56L3106.06 1076.22C3120.28 1071.96 3114.58 1050.71 3100.13 1054.12ZM1273.3 1637.13C1258.54 1641.08 1243.58 1640.58 1229.94 1636.36C1204.77 1628.66 1183.98 1608.55 1176.69 1581.35C1169.4 1554.15 1177.36 1526.35 1195.39 1507.1C1205.09 1496.63 1217.76 1488.73 1232.48 1484.78C1248.78 1480.41 1265.24 1481.55 1279.98 1486.96C1303.26 1495.47 1322.14 1514.8 1329.04 1540.53C1335.93 1566.26 1329.24 1592.45 1313.35 1611.49C1303.26 1623.59 1289.57 1632.77 1273.3 1637.13Z" fill="#022859"/>
</svg>
